<svg width="96" height="22" viewBox="0 0 96 22" fill="none" xmlns="http://www.w3.org/2000/svg">
<path d="M76.5251 21.2419H70.0742L78.9098 0.758064H87.1339L96.0001 21.2419H89.3963L84.5352 9.41021L83.19 5.95547H82.7926L81.4779 9.41021L76.5251 21.2419ZM90.4052 17.4509H75.3022V12.2841H90.4052V17.4509Z" fill="white"/>
<path d="M47.9347 21.2419H42.187V0.758064H49.9831L53.7436 9.25734L55.7614 14.5465H56.1588L58.0849 9.25734L61.662 0.758064H69.4581V21.2419H63.7104V12.7732L63.9244 9.34906H63.5269L62.3652 12.7732L59.3079 20.019H52.3372L49.2799 12.7732L48.1182 9.34906H47.7207L47.9347 12.7732V21.2419Z" fill="white"/>
<path d="M28.11 21.2419H22.3623V0.758064H28.11V21.2419ZM40.5532 21.2419H23.9215V16.0751H40.5532V21.2419ZM40.0946 13.507H23.9215V8.37073H40.0946V13.507ZM40.5532 5.92489H23.9215V0.758064H40.5532V5.92489Z" fill="white"/>
<path d="M21.5845 21.2419H14.7056L9.93621 13.9656H4.0662V8.37073H9.87506L14.8585 0.758064H21.7374L14.6444 10.8166L21.5845 21.2419ZM5.74771 21.2419H0V0.758064H5.74771V21.2419Z" fill="white"/>
</svg>
